<svg width="511" height="192" viewBox="0 0 511 192" fill="none" xmlns="http://www.w3.org/2000/svg">
<path d="M180.53 94.3807C178.758 87.2731 171.171 73.591 155.004 75.7233C134.796 78.3886 134.796 93.0482 135.86 101.044C136.924 109.04 140.114 121.034 160.322 121.034C180.53 121.034 186.912 111.706 183.721 131.696C180.53 151.686 161.386 219.652 141.178 155.684" stroke="white" stroke-width="5" stroke-linecap="round"/>
<path d="M127.5 32.5002C146.703 20.458 198.587 1.7925 252.5 23.4686" stroke="white" stroke-width="5" stroke-linecap="round"/>
<path d="M193.789 13.5002C200.351 30.8691 207.881 87.7855 185.5 176.5" stroke="white" stroke-width="5" stroke-linecap="round"/>
<path d="M217.5 82.5002C216.789 98.1669 212.593 138.9 201.5 176.5" stroke="white" stroke-width="5" stroke-linecap="round"/>
<circle cx="234.5" cy="49.5002" r="22" fill="#E31818"/>
<path d="M292.776 68.6224C290.616 65.9445 283.485 61.392 272.249 64.6055C258.204 68.6224 231.194 82.0118 225.792 139.587C220.39 197.161 291.696 155.654 302.5 127.536" stroke="white" stroke-width="5" stroke-linecap="round"/>
<path d="M261.5 29.5002C291.112 41.5002 340.804 88.7002 302.669 181.5" stroke="white" stroke-width="5" stroke-linecap="round"/>
<circle cx="370" cy="22.0002" r="10.5" fill="#FF0000"/>
<circle cx="369" cy="161" r="10.5" fill="#FF0000"/>
<path d="M368.035 10.54C373.133 10.094 382.675 13.2161 380.053 29.2729C377.43 45.3298 335.258 78.7815 314.5 93.5002" stroke="white" stroke-width="5" stroke-linecap="round"/>
<path d="M370.978 173.5C375.963 171.722 384.011 164.434 376.32 149.5C366.706 130.834 350.683 113.5 316.5 101.5" stroke="white" stroke-width="5" stroke-linecap="round"/>
<path d="M363.5 98.5002L410.5 91.5002" stroke="white" stroke-width="5" stroke-linecap="round"/>
<path d="M409.151 92.3498C403.716 70.509 386.539 36.4552 356.968 74.9663C327.397 113.477 382.335 137.369 413.5 144.5" stroke="white" stroke-width="5" stroke-linecap="round"/>
<path d="M383.5 36.5002C385.655 33.8014 415.828 -24.2248 508.5 17.608" stroke="white" stroke-width="5" stroke-linecap="round"/>
<path d="M444.588 3.50024C449.606 36.5128 447.814 118.33 400.5 181.5" stroke="white" stroke-width="5" stroke-linecap="round"/>
<path d="M120.5 37.5002C104.887 43.278 69.8291 77.7669 54.5 169.5" stroke="white" stroke-width="5" stroke-linecap="round"/>
<path d="M120.564 38.5002C111.252 68.5236 103.802 140.756 148.5 189.5" stroke="white" stroke-width="5" stroke-linecap="round"/>
<path d="M56.5 117.5C64.0224 122.884 88.9538 130.961 128.5 120.192" stroke="white" stroke-width="5" stroke-linecap="round"/>
<path d="M15.5 20.7045C38.1667 31.0271 98.7 42.0379 159.5 3.50024" stroke="white" stroke-width="5" stroke-linecap="round"/>
<path d="M16.5 21.5002C24.5601 37.5978 38.4819 93.1344 29.6892 186.5" stroke="white" stroke-width="5" stroke-linecap="round"/>
<path d="M2.50003 120.5C8.56205 115.139 26.2489 106.562 48.5 115.139" stroke="white" stroke-width="5" stroke-linecap="round"/>
</svg>
