<svg width="511" height="238" viewBox="0 0 511 238" fill="none" xmlns="http://www.w3.org/2000/svg">
<rect width="506" height="235" transform="translate(2.50003)" fill="white"/>
<path d="M5.31821 31V7.72727H19.2728V10.2273H8.13639V18.0909H18.2273V20.5909H8.13639V31H5.31821ZM22.1478 31H19.1932L27.7387 7.72727H30.6478L39.1932 31H36.2387L29.2841 11.4091H29.1023L22.1478 31ZM23.2387 21.9091H35.1478V24.4091H23.2387V21.9091ZM55.5455 13.5455C55.4091 12.3939 54.8561 11.5 53.8864 10.8636C52.9167 10.2273 51.7273 9.90909 50.3182 9.90909C49.2879 9.90909 48.3864 10.0758 47.6137 10.4091C46.8485 10.7424 46.25 11.2008 45.8182 11.7841C45.394 12.3674 45.1818 13.0303 45.1818 13.7727C45.1818 14.3939 45.3296 14.928 45.625 15.375C45.9281 15.8144 46.3144 16.1818 46.7841 16.4773C47.2538 16.7652 47.7462 17.0038 48.2614 17.1932C48.7765 17.375 49.25 17.5227 49.6818 17.6364L52.0455 18.2727C52.6515 18.4318 53.3258 18.6515 54.0682 18.9318C54.8182 19.2121 55.5341 19.5947 56.2159 20.0795C56.9053 20.5568 57.4735 21.1705 57.9205 21.9205C58.3675 22.6705 58.5909 23.5909 58.5909 24.6818C58.5909 25.9394 58.2614 27.0758 57.6023 28.0909C56.9508 29.1061 55.9962 29.9129 54.7387 30.5114C53.4887 31.1098 51.9697 31.4091 50.1818 31.4091C48.5152 31.4091 47.072 31.1402 45.8523 30.6023C44.6402 30.0644 43.6856 29.3144 42.9887 28.3523C42.2993 27.3902 41.9091 26.2727 41.8182 25H44.7273C44.8031 25.8788 45.0985 26.6061 45.6137 27.1818C46.1364 27.75 46.7955 28.1742 47.5909 28.4545C48.394 28.7273 49.2576 28.8636 50.1818 28.8636C51.2576 28.8636 52.2235 28.6894 53.0796 28.3409C53.9356 27.9848 54.6137 27.4924 55.1137 26.8636C55.6137 26.2273 55.8637 25.4848 55.8637 24.6364C55.8637 23.8636 55.6478 23.2348 55.2159 22.75C54.7841 22.2652 54.2159 21.8712 53.5114 21.5682C52.8068 21.2652 52.0455 21 51.2273 20.7727L48.3637 19.9545C46.5455 19.4318 45.1061 18.6856 44.0455 17.7159C42.9849 16.7462 42.4546 15.4773 42.4546 13.9091C42.4546 12.6061 42.8068 11.4697 43.5114 10.5C44.2235 9.52273 45.1781 8.76515 46.375 8.22727C47.5796 7.68182 48.9243 7.40909 50.4091 7.40909C51.9091 7.40909 53.2425 7.67803 54.4091 8.21591C55.5758 8.74621 56.5 9.47348 57.1818 10.3977C57.8712 11.322 58.2349 12.3712 58.2728 13.5455H55.5455ZM61.9517 10.2273V7.72727H79.4063V10.2273H72.0881V31H69.2699V10.2273H61.9517ZM86.5739 7.72727V31H83.7557V7.72727H86.5739ZM110.952 15H108.134C107.967 14.1894 107.675 13.4773 107.259 12.8636C106.849 12.25 106.349 11.7348 105.759 11.3182C105.175 10.8939 104.527 10.5758 103.815 10.3636C103.103 10.1515 102.361 10.0455 101.588 10.0455C100.179 10.0455 98.9025 10.4015 97.7586 11.1136C96.6222 11.8258 95.7169 12.875 95.0426 14.2614C94.376 15.6477 94.0426 17.3485 94.0426 19.3636C94.0426 21.3788 94.376 23.0795 95.0426 24.4659C95.7169 25.8523 96.6222 26.9015 97.7586 27.6136C98.9025 28.3258 100.179 28.6818 101.588 28.6818C102.361 28.6818 103.103 28.5758 103.815 28.3636C104.527 28.1515 105.175 27.8371 105.759 27.4205C106.349 26.9962 106.849 26.4773 107.259 25.8636C107.675 25.2424 107.967 24.5303 108.134 23.7273H110.952C110.74 24.9167 110.353 25.9811 109.793 26.9205C109.232 27.8598 108.535 28.6591 107.702 29.3182C106.868 29.9697 105.933 30.4659 104.895 30.8068C103.865 31.1477 102.762 31.3182 101.588 31.3182C99.6033 31.3182 97.8381 30.8333 96.2926 29.8636C94.7472 28.8939 93.5313 27.5152 92.6449 25.7273C91.7586 23.9394 91.3154 21.8182 91.3154 19.3636C91.3154 16.9091 91.7586 14.7879 92.6449 13C93.5313 11.2121 94.7472 9.83333 96.2926 8.86364C97.8381 7.89394 99.6033 7.40909 101.588 7.40909C102.762 7.40909 103.865 7.57954 104.895 7.92045C105.933 8.26136 106.868 8.76136 107.702 9.42045C108.535 10.072 109.232 10.8674 109.793 11.8068C110.353 12.7386 110.74 13.803 110.952 15ZM115.506 31V7.72727H118.324V19.2727H118.597L129.051 7.72727H132.733L122.96 18.2273L132.733 31H129.324L121.233 20.1818L118.324 23.4545V31H115.506ZM136.381 31V7.72727H150.426V10.2273H139.199V18.0909H149.699V20.5909H139.199V28.5H150.608V31H136.381ZM154.233 10.2273V7.72727H171.688V10.2273H164.369V31H161.551V10.2273H154.233Z" fill="white"/>
<path d="M180.53 139.88C178.758 132.773 171.171 119.091 155.004 121.223C134.796 123.888 134.796 138.548 135.86 146.544C136.924 154.54 140.114 166.534 160.322 166.534C180.53 166.534 186.912 157.205 183.721 177.195C180.53 197.186 161.386 265.152 141.178 201.184" stroke="white" stroke-width="5" stroke-linecap="round"/>
<path d="M127.5 78C146.703 65.9577 198.587 47.2923 252.5 68.9683" stroke="white" stroke-width="5" stroke-linecap="round"/>
<path d="M193.789 59C200.351 76.3689 207.881 133.285 185.5 222" stroke="white" stroke-width="5" stroke-linecap="round"/>
<path d="M217.5 128C216.789 143.667 212.593 184.4 201.5 222" stroke="white" stroke-width="5" stroke-linecap="round"/>
<circle cx="234.5" cy="95" r="22" fill="#E31818"/>
<path d="M292.776 114.122C290.616 111.444 283.485 106.892 272.249 110.105C258.204 114.122 231.194 127.512 225.792 185.086C220.39 242.661 291.696 201.154 302.5 173.036" stroke="white" stroke-width="5" stroke-linecap="round"/>
<path d="M261.5 75C291.112 87 340.804 134.2 302.669 227" stroke="white" stroke-width="5" stroke-linecap="round"/>
<circle cx="370" cy="67.5" r="10.5" fill="#FF0000"/>
<circle cx="369" cy="206.5" r="10.5" fill="#FF0000"/>
<path d="M368.035 56.0398C373.133 55.5937 382.675 58.7159 380.053 74.7727C377.43 90.8295 335.258 124.281 314.5 139" stroke="white" stroke-width="5" stroke-linecap="round"/>
<path d="M370.978 219C375.963 217.222 384.011 209.933 376.32 195C366.706 176.333 350.683 159 316.5 147" stroke="white" stroke-width="5" stroke-linecap="round"/>
<path d="M363.5 144L410.5 137" stroke="white" stroke-width="5" stroke-linecap="round"/>
<path d="M409.151 137.85C403.716 116.009 386.539 81.955 356.968 120.466C327.397 158.977 382.335 182.868 413.5 190" stroke="white" stroke-width="5" stroke-linecap="round"/>
<path d="M383.5 82C385.655 79.3011 415.828 21.2749 508.5 63.1077" stroke="white" stroke-width="5" stroke-linecap="round"/>
<path d="M444.588 49C449.606 82.0125 447.814 163.83 400.5 227" stroke="white" stroke-width="5" stroke-linecap="round"/>
<path d="M120.5 83C104.887 88.7778 69.8291 123.267 54.5 215" stroke="white" stroke-width="5" stroke-linecap="round"/>
<path d="M120.564 84C111.252 114.023 103.802 186.256 148.5 235" stroke="white" stroke-width="5" stroke-linecap="round"/>
<path d="M56.5 163C64.0224 168.384 88.9538 176.461 128.5 165.692" stroke="white" stroke-width="5" stroke-linecap="round"/>
<path d="M15.5 66.2043C38.1667 76.5269 98.7 87.5376 159.5 49" stroke="white" stroke-width="5" stroke-linecap="round"/>
<path d="M16.5 67C24.5601 83.0976 38.4819 138.634 29.6892 232" stroke="white" stroke-width="5" stroke-linecap="round"/>
<path d="M2.50003 166C8.56205 160.639 26.2489 152.061 48.5 160.639" stroke="white" stroke-width="5" stroke-linecap="round"/>
<path d="M5.55685 45V36.2727H6.61367V40.6023H6.71594L10.6364 36.2727H12.0171L8.3523 40.2102L12.0171 45H10.7387L7.70458 40.9432L6.61367 42.1705V45H5.55685ZM16.9635 42.3239V38.4545H17.9691V45H16.9635V43.892H16.8953C16.7419 44.2244 16.5032 44.5071 16.1794 44.7401C15.8555 44.9702 15.4464 45.0852 14.9521 45.0852C14.543 45.0852 14.1794 44.9957 13.8612 44.8168C13.543 44.6349 13.293 44.3622 13.1112 43.9986C12.9294 43.6321 12.8385 43.1705 12.8385 42.6136V38.4545H13.8441V42.5455C13.8441 43.0227 13.9777 43.4034 14.2447 43.6875C14.5146 43.9716 14.8583 44.1136 15.276 44.1136C15.526 44.1136 15.7802 44.0497 16.0387 43.9219C16.3001 43.794 16.5189 43.598 16.695 43.3338C16.874 43.0696 16.9635 42.733 16.9635 42.3239ZM14.185 37.3636C14.0061 37.3636 13.847 37.2955 13.7078 37.1591C13.5714 37.0199 13.5032 36.8608 13.5032 36.6818C13.5032 36.4858 13.5714 36.3239 13.7078 36.196C13.847 36.0653 14.0061 36 14.185 36C14.3811 36 14.543 36.0653 14.6708 36.196C14.8015 36.3239 14.8669 36.4858 14.8669 36.6818C14.8669 36.8608 14.8015 37.0199 14.6708 37.1591C14.543 37.2955 14.3811 37.3636 14.185 37.3636ZM16.6396 37.3636C16.4606 37.3636 16.3015 37.2955 16.1623 37.1591C16.026 37.0199 15.9578 36.8608 15.9578 36.6818C15.9578 36.4858 16.026 36.3239 16.1623 36.196C16.3015 36.0653 16.4606 36 16.6396 36C16.8356 36 16.9975 36.0653 17.1254 36.196C17.2561 36.3239 17.3214 36.4858 17.3214 36.6818C17.3214 36.8608 17.2561 37.0199 17.1254 37.1591C16.9975 37.2955 16.8356 37.3636 16.6396 37.3636ZM20.8168 36.2727V45H19.8111V36.2727H20.8168ZM25.5054 38.4545V39.3068H22.1133V38.4545H25.5054ZM23.1019 36.8864H24.1076V43.125C24.1076 43.4091 24.1488 43.6222 24.2312 43.7642C24.3164 43.9034 24.4244 43.9972 24.5551 44.0455C24.6886 44.0909 24.8292 44.1136 24.9769 44.1136C25.0877 44.1136 25.1787 44.108 25.2497 44.0966C25.3207 44.0824 25.3775 44.071 25.4201 44.0625L25.6247 44.9659C25.5565 44.9915 25.4613 45.017 25.3392 45.0426C25.217 45.071 25.0622 45.0852 24.8747 45.0852C24.5906 45.0852 24.3122 45.0241 24.0394 44.902C23.7696 44.7798 23.5451 44.5938 23.3662 44.3438C23.19 44.0938 23.1019 43.7784 23.1019 43.3977V36.8864ZM31.1431 42.3239V38.4545H32.1488V45H31.1431V43.892H31.075C30.9216 44.2244 30.6829 44.5071 30.3591 44.7401C30.0352 44.9702 29.6261 45.0852 29.1318 45.0852C28.7227 45.0852 28.3591 44.9957 28.0409 44.8168C27.7227 44.6349 27.4727 44.3622 27.2909 43.9986C27.1091 43.6321 27.0181 43.1705 27.0181 42.6136V38.4545H28.0238V42.5455C28.0238 43.0227 28.1573 43.4034 28.4244 43.6875C28.6943 43.9716 29.038 44.1136 29.4556 44.1136C29.7056 44.1136 29.9599 44.0497 30.2184 43.9219C30.4798 43.794 30.6985 43.598 30.8747 43.3338C31.0537 43.0696 31.1431 42.733 31.1431 42.3239ZM28.3647 37.3636C28.1858 37.3636 28.0267 37.2955 27.8875 37.1591C27.7511 37.0199 27.6829 36.8608 27.6829 36.6818C27.6829 36.4858 27.7511 36.3239 27.8875 36.196C28.0267 36.0653 28.1858 36 28.3647 36C28.5608 36 28.7227 36.0653 28.8505 36.196C28.9812 36.3239 29.0466 36.4858 29.0466 36.6818C29.0466 36.8608 28.9812 37.0199 28.8505 37.1591C28.7227 37.2955 28.5608 37.3636 28.3647 37.3636ZM30.8193 37.3636C30.6403 37.3636 30.4812 37.2955 30.342 37.1591C30.2056 37.0199 30.1375 36.8608 30.1375 36.6818C30.1375 36.4858 30.2056 36.3239 30.342 36.196C30.4812 36.0653 30.6403 36 30.8193 36C31.0153 36 31.1772 36.0653 31.3051 36.196C31.4358 36.3239 31.5011 36.4858 31.5011 36.6818C31.5011 36.8608 31.4358 37.0199 31.3051 37.1591C31.1772 37.2955 31.0153 37.3636 30.8193 37.3636ZM33.9908 45V38.4545H34.9624V39.4432H35.0306C35.1499 39.1193 35.3658 38.8565 35.6783 38.6548C35.9908 38.4531 36.3431 38.3523 36.7351 38.3523C36.809 38.3523 36.9013 38.3537 37.0121 38.3565C37.1229 38.3594 37.2067 38.3636 37.2635 38.3693V39.392C37.2294 39.3835 37.1513 39.3707 37.0292 39.3537C36.9098 39.3338 36.7834 39.3239 36.6499 39.3239C36.3317 39.3239 36.0476 39.3906 35.7976 39.5241C35.5505 39.6548 35.3544 39.8366 35.2095 40.0696C35.0675 40.2997 34.9965 40.5625 34.9965 40.858V45H33.9908ZM46.7397 38.4545C46.6886 38.0227 46.4812 37.6875 46.1176 37.4489C45.7539 37.2102 45.3079 37.0909 44.7795 37.0909C44.3931 37.0909 44.0551 37.1534 43.7653 37.2784C43.4784 37.4034 43.2539 37.5753 43.092 37.794C42.9329 38.0128 42.8534 38.2614 42.8534 38.5398C42.8534 38.7727 42.9088 38.973 43.0196 39.1406C43.1332 39.3054 43.2781 39.4432 43.4542 39.554C43.6304 39.6619 43.815 39.7514 44.0082 39.8224C44.2014 39.8906 44.3789 39.946 44.5409 39.9886L45.4272 40.2273C45.6545 40.2869 45.9073 40.3693 46.1858 40.4744C46.467 40.5795 46.7355 40.723 46.9912 40.9048C47.2497 41.0838 47.4627 41.3139 47.6304 41.5952C47.798 41.8764 47.8818 42.2216 47.8818 42.6307C47.8818 43.1023 47.7582 43.5284 47.511 43.9091C47.2667 44.2898 46.9088 44.5923 46.4372 44.8168C45.9684 45.0412 45.3988 45.1534 44.7284 45.1534C44.1034 45.1534 43.5622 45.0526 43.1048 44.8509C42.6502 44.6491 42.2923 44.3679 42.0309 44.0071C41.7724 43.6463 41.6261 43.2273 41.592 42.75H42.6829C42.7113 43.0795 42.8221 43.3523 43.0153 43.5682C43.2113 43.7812 43.4585 43.9403 43.7568 44.0455C44.0579 44.1477 44.3818 44.1989 44.7284 44.1989C45.1318 44.1989 45.494 44.1335 45.815 44.0028C46.136 43.8693 46.3903 43.6847 46.5778 43.4489C46.7653 43.2102 46.8591 42.9318 46.8591 42.6136C46.8591 42.3239 46.7781 42.0881 46.6162 41.9062C46.4542 41.7244 46.2412 41.5767 45.9769 41.4631C45.7127 41.3494 45.4272 41.25 45.1204 41.1648L44.0466 40.858C43.3647 40.6619 42.825 40.3821 42.4272 40.0185C42.0295 39.6548 41.8306 39.179 41.8306 38.5909C41.8306 38.1023 41.9627 37.6761 42.2269 37.3125C42.494 36.946 42.8519 36.6619 43.3008 36.4602C43.7525 36.2557 44.2568 36.1534 44.8136 36.1534C45.3761 36.1534 45.8761 36.2543 46.3136 36.456C46.7511 36.6548 47.0977 36.9276 47.3534 37.2741C47.6119 37.6207 47.7483 38.0142 47.7625 38.4545H46.7397ZM51.4091 45.1534C50.9943 45.1534 50.6179 45.0753 50.2799 44.919C49.9418 44.7599 49.6733 44.5312 49.4745 44.233C49.2756 43.9318 49.1762 43.5682 49.1762 43.142C49.1762 42.767 49.25 42.4631 49.3978 42.2301C49.5455 41.9943 49.7429 41.8097 49.9901 41.6761C50.2372 41.5426 50.51 41.4432 50.8083 41.3778C51.1094 41.3097 51.412 41.2557 51.7159 41.2159C52.1137 41.1648 52.4361 41.1264 52.6833 41.1009C52.9333 41.0724 53.1151 41.0256 53.2287 40.9602C53.3452 40.8949 53.4034 40.7812 53.4034 40.6193V40.5852C53.4034 40.1648 53.2884 39.8381 53.0583 39.6051C52.831 39.3722 52.4858 39.2557 52.0228 39.2557C51.5426 39.2557 51.1662 39.3608 50.8935 39.571C50.6208 39.7812 50.429 40.0057 50.3182 40.2443L49.3637 39.9034C49.5341 39.5057 49.7614 39.196 50.0455 38.9744C50.3324 38.75 50.6449 38.5937 50.983 38.5057C51.3239 38.4148 51.6591 38.3693 51.9887 38.3693C52.1989 38.3693 52.4404 38.3949 52.7131 38.446C52.9887 38.4943 53.2543 38.5952 53.51 38.7486C53.7685 38.902 53.983 39.1335 54.1534 39.4432C54.3239 39.7528 54.4091 40.1676 54.4091 40.6875V45H53.4034V44.1136H53.3523C53.2841 44.2557 53.1705 44.4077 53.0114 44.5696C52.8523 44.7315 52.6407 44.8693 52.3765 44.983C52.1122 45.0966 51.7898 45.1534 51.4091 45.1534ZM51.5625 44.25C51.9603 44.25 52.2955 44.1719 52.5682 44.0156C52.8438 43.8594 53.0512 43.6577 53.1904 43.4105C53.3324 43.1634 53.4034 42.9034 53.4034 42.6307V41.7102C53.3608 41.7614 53.2671 41.8082 53.1222 41.8509C52.9801 41.8906 52.8154 41.9261 52.6279 41.9574C52.4432 41.9858 52.2628 42.0114 52.0867 42.0341C51.9134 42.054 51.7728 42.071 51.6648 42.0852C51.4034 42.1193 51.1591 42.1747 50.9318 42.2514C50.7074 42.3253 50.5256 42.4375 50.3864 42.5881C50.25 42.7358 50.1818 42.9375 50.1818 43.1932C50.1818 43.5426 50.3111 43.8068 50.5696 43.9858C50.831 44.1619 51.162 44.25 51.5625 44.25ZM57.2504 41.0625V45H56.2447V38.4545H57.2163V39.4773H57.3015C57.4549 39.1449 57.6879 38.8778 58.0004 38.6761C58.3129 38.4716 58.7163 38.3693 59.2106 38.3693C59.6538 38.3693 60.0416 38.4602 60.374 38.642C60.7064 38.821 60.9649 39.0938 61.1495 39.4602C61.3342 39.8239 61.4265 40.2841 61.4265 40.8409V45H60.4208V40.9091C60.4208 40.3949 60.2873 39.9943 60.0203 39.7074C59.7532 39.4176 59.3867 39.2727 58.9208 39.2727C58.5998 39.2727 58.3129 39.3423 58.06 39.4815C57.81 39.6207 57.6126 39.8239 57.4677 40.0909C57.3228 40.358 57.2504 40.6818 57.2504 41.0625ZM65.1904 45.1534C64.7756 45.1534 64.3992 45.0753 64.0611 44.919C63.723 44.7599 63.4546 44.5312 63.2557 44.233C63.0568 43.9318 62.9574 43.5682 62.9574 43.142C62.9574 42.767 63.0313 42.4631 63.179 42.2301C63.3267 41.9943 63.5242 41.8097 63.7713 41.6761C64.0185 41.5426 64.2912 41.4432 64.5895 41.3778C64.8907 41.3097 65.1932 41.2557 65.4972 41.2159C65.8949 41.1648 66.2174 41.1264 66.4645 41.1009C66.7145 41.0724 66.8963 41.0256 67.01 40.9602C67.1265 40.8949 67.1847 40.7812 67.1847 40.6193V40.5852C67.1847 40.1648 67.0696 39.8381 66.8395 39.6051C66.6122 39.3722 66.2671 39.2557 65.804 39.2557C65.3239 39.2557 64.9475 39.3608 64.6747 39.571C64.402 39.7812 64.2103 40.0057 64.0995 40.2443L63.1449 39.9034C63.3154 39.5057 63.5426 39.196 63.8267 38.9744C64.1137 38.75 64.4262 38.5937 64.7642 38.5057C65.1051 38.4148 65.4404 38.3693 65.7699 38.3693C65.9801 38.3693 66.2216 38.3949 66.4943 38.446C66.7699 38.4943 67.0355 38.5952 67.2912 38.7486C67.5497 38.902 67.7642 39.1335 67.9347 39.4432C68.1051 39.7528 68.1904 40.1676 68.1904 40.6875V45H67.1847V44.1136H67.1336C67.0654 44.2557 66.9517 44.4077 66.7926 44.5696C66.6336 44.7315 66.4219 44.8693 66.1577 44.983C65.8935 45.0966 65.5711 45.1534 65.1904 45.1534ZM65.3438 44.25C65.7415 44.25 66.0767 44.1719 66.3495 44.0156C66.625 43.8594 66.8324 43.6577 66.9716 43.4105C67.1137 43.1634 67.1847 42.9034 67.1847 42.6307V41.7102C67.1421 41.7614 67.0483 41.8082 66.9034 41.8509C66.7614 41.8906 66.5966 41.9261 66.4091 41.9574C66.2245 41.9858 66.0441 42.0114 65.8679 42.0341C65.6946 42.054 65.554 42.071 65.4461 42.0852C65.1847 42.1193 64.9404 42.1747 64.7131 42.2514C64.4887 42.3253 64.3068 42.4375 64.1676 42.5881C64.0313 42.7358 63.9631 42.9375 63.9631 43.1932C63.9631 43.5426 64.0924 43.8068 64.3509 43.9858C64.6122 44.1619 64.9432 44.25 65.3438 44.25ZM72.8725 38.4545V39.3068H69.4805V38.4545H72.8725ZM70.4691 36.8864H71.4748V43.125C71.4748 43.4091 71.516 43.6222 71.5984 43.7642C71.6836 43.9034 71.7916 43.9972 71.9223 44.0455C72.0558 44.0909 72.1964 44.1136 72.3441 44.1136C72.4549 44.1136 72.5458 44.108 72.6169 44.0966C72.6879 44.0824 72.7447 44.071 72.7873 44.0625L72.9919 44.9659C72.9237 44.9915 72.8285 45.017 72.7064 45.0426C72.5842 45.071 72.4294 45.0852 72.2419 45.0852C71.9578 45.0852 71.6794 45.0241 71.4066 44.902C71.1367 44.7798 70.9123 44.5938 70.7333 44.3438C70.5572 44.0938 70.4691 43.7784 70.4691 43.3977V36.8864ZM82.7887 47.3011C81.9194 47.3011 81.151 47.1818 80.4833 46.9432C79.8157 46.7074 79.2546 46.3594 78.8001 45.8991C78.3456 45.4389 78.0018 44.875 77.7689 44.2074C77.5359 43.5398 77.4194 42.7756 77.4194 41.9148C77.4194 41.0824 77.5373 40.3381 77.7731 39.6818C78.0117 39.0256 78.3569 38.4688 78.8086 38.0114C79.2632 37.5511 79.8143 37.2003 80.462 36.9588C81.1126 36.7173 81.8484 36.5966 82.6694 36.5966C83.4677 36.5966 84.1666 36.7273 84.766 36.9886C85.3683 37.2472 85.8711 37.598 86.2745 38.0412C86.6808 38.4815 86.9848 38.9773 87.1865 39.5284C87.391 40.0795 87.4933 40.6477 87.4933 41.233C87.4933 41.6449 87.4734 42.0625 87.4336 42.4858C87.3939 42.9091 87.31 43.2983 87.1822 43.6534C87.0544 44.0057 86.8569 44.2898 86.5899 44.5057C86.3257 44.7216 85.9677 44.8295 85.516 44.8295C85.3171 44.8295 85.0984 44.7983 84.8598 44.7358C84.6211 44.6733 84.4095 44.5696 84.2248 44.4247C84.0402 44.2798 83.9308 44.0852 83.8967 43.8409H83.8456C83.7774 44.0057 83.6723 44.1619 83.5302 44.3097C83.391 44.4574 83.2078 44.5753 82.9805 44.6634C82.7561 44.7514 82.4819 44.7898 82.1581 44.7784C81.7887 44.7642 81.4635 44.6818 81.1822 44.5312C80.901 44.3778 80.6652 44.1705 80.4748 43.9091C80.2873 43.6449 80.1453 43.3395 80.0487 42.9929C79.9549 42.6435 79.9081 42.267 79.9081 41.8636C79.9081 41.4801 79.9649 41.1293 80.0785 40.8111C80.1921 40.4929 80.3498 40.2145 80.5515 39.9759C80.7561 39.7372 80.9947 39.5469 81.2674 39.4048C81.543 39.2599 81.8399 39.1705 82.1581 39.1364C82.4421 39.108 82.7007 39.1207 82.9336 39.1747C83.1666 39.2259 83.3583 39.304 83.5089 39.4091C83.6595 39.5114 83.7546 39.625 83.7944 39.75H83.8456V39.2727H84.749V43.125C84.749 43.3636 84.8157 43.5739 84.9492 43.7557C85.0828 43.9375 85.2774 44.0284 85.5331 44.0284C85.8228 44.0284 86.0444 43.929 86.1978 43.7301C86.3541 43.5312 86.4606 43.2244 86.5174 42.8097C86.5771 42.3949 86.6069 41.8636 86.6069 41.2159C86.6069 40.8352 86.5544 40.4602 86.4492 40.0909C86.347 39.7187 86.1907 39.3707 85.9805 39.0469C85.7731 38.723 85.5103 38.4375 85.1921 38.1903C84.874 37.9432 84.5004 37.75 84.0714 37.6108C83.6453 37.4687 83.1609 37.3977 82.6183 37.3977C81.9507 37.3977 81.3527 37.5014 80.8242 37.7088C80.2987 37.9134 79.8512 38.2131 79.4819 38.608C79.1154 39 78.8356 39.4773 78.6424 40.0398C78.4521 40.5994 78.3569 41.2358 78.3569 41.9489C78.3569 42.6733 78.4521 43.3168 78.6424 43.8793C78.8356 44.4418 79.1197 44.9162 79.4947 45.3026C79.8725 45.6889 80.3399 45.9815 80.8967 46.1804C81.4535 46.3821 82.0956 46.483 82.8228 46.483C83.1353 46.483 83.4436 46.4531 83.7475 46.3935C84.0515 46.3338 84.32 46.2685 84.5529 46.1974C84.7859 46.1264 84.9535 46.0739 85.0558 46.0398L85.2944 46.8239C85.1183 46.8977 84.8882 46.9716 84.6041 47.0455C84.3228 47.1193 84.0217 47.1804 83.7007 47.2287C83.3825 47.277 83.0785 47.3011 82.7887 47.3011ZM82.2944 43.9091C82.6751 43.9091 82.9833 43.8324 83.2191 43.679C83.4549 43.5256 83.6268 43.294 83.7348 42.9844C83.8427 42.6747 83.8967 42.2841 83.8967 41.8125C83.8967 41.3352 83.837 40.9631 83.7177 40.696C83.5984 40.429 83.4223 40.2415 83.1893 40.1335C82.9564 40.0256 82.6694 39.9716 82.3285 39.9716C82.0046 39.9716 81.7277 40.0568 81.4975 40.2273C81.2703 40.3949 81.0956 40.6193 80.9734 40.9006C80.8541 41.179 80.7944 41.483 80.7944 41.8125C80.7944 42.1761 80.8427 42.5185 80.9393 42.8395C81.0359 43.1577 81.1936 43.4162 81.4123 43.6151C81.6311 43.8111 81.9251 43.9091 82.2944 43.9091ZM91.9134 38.4545V39.3068H88.385V38.4545H91.9134ZM89.4418 45V37.5511C89.4418 37.1761 89.5299 36.8636 89.706 36.6136C89.8821 36.3636 90.1108 36.1761 90.3921 36.0511C90.6733 35.9261 90.9702 35.8636 91.2827 35.8636C91.5299 35.8636 91.7316 35.8835 91.8878 35.9233C92.0441 35.9631 92.1605 36 92.2372 36.0341L91.9475 36.9034C91.8963 36.8864 91.8253 36.8651 91.7344 36.8395C91.6463 36.8139 91.5299 36.8011 91.385 36.8011C91.0526 36.8011 90.8125 36.8849 90.6648 37.0526C90.5199 37.2202 90.4475 37.4659 90.4475 37.7898V45H89.4418ZM95.0615 45.1534C94.6467 45.1534 94.2703 45.0753 93.9322 44.919C93.5941 44.7599 93.3257 44.5312 93.1268 44.233C92.9279 43.9318 92.8285 43.5682 92.8285 43.142C92.8285 42.767 92.9024 42.4631 93.0501 42.2301C93.1978 41.9943 93.3953 41.8097 93.6424 41.6761C93.8896 41.5426 94.1623 41.4432 94.4606 41.3778C94.7617 41.3097 95.0643 41.2557 95.3683 41.2159C95.766 41.1648 96.0885 41.1264 96.3356 41.1009C96.5856 41.0724 96.7674 41.0256 96.8811 40.9602C96.9975 40.8949 97.0558 40.7812 97.0558 40.6193V40.5852C97.0558 40.1648 96.9407 39.8381 96.7106 39.6051C96.4833 39.3722 96.1382 39.2557 95.6751 39.2557C95.195 39.2557 94.8186 39.3608 94.5458 39.571C94.2731 39.7812 94.0814 40.0057 93.9706 40.2443L93.016 39.9034C93.1865 39.5057 93.4137 39.196 93.6978 38.9744C93.9848 38.75 94.2973 38.5937 94.6353 38.5057C94.9762 38.4148 95.3115 38.3693 95.641 38.3693C95.8512 38.3693 96.0927 38.3949 96.3654 38.446C96.641 38.4943 96.9066 38.5952 97.1623 38.7486C97.4208 38.902 97.6353 39.1335 97.8058 39.4432C97.9762 39.7528 98.0615 40.1676 98.0615 40.6875V45H97.0558V44.1136H97.0046C96.9365 44.2557 96.8228 44.4077 96.6637 44.5696C96.5046 44.7315 96.293 44.8693 96.0288 44.983C95.7646 45.0966 95.4421 45.1534 95.0615 45.1534ZM95.2149 44.25C95.6126 44.25 95.9478 44.1719 96.2206 44.0156C96.4961 43.8594 96.7035 43.6577 96.8427 43.4105C96.9848 43.1634 97.0558 42.9034 97.0558 42.6307V41.7102C97.0132 41.7614 96.9194 41.8082 96.7745 41.8509C96.6325 41.8906 96.4677 41.9261 96.2802 41.9574C96.0956 41.9858 95.9152 42.0114 95.739 42.0341C95.5657 42.054 95.4251 42.071 95.3171 42.0852C95.0558 42.1193 94.8115 42.1747 94.5842 42.2514C94.3598 42.3253 94.1779 42.4375 94.0387 42.5881C93.9024 42.7358 93.8342 42.9375 93.8342 43.1932C93.8342 43.5426 93.9635 43.8068 94.222 43.9858C94.4833 44.1619 94.8143 44.25 95.2149 44.25ZM104.533 39.9205L103.63 40.1761C103.573 40.0256 103.489 39.8793 103.379 39.7372C103.271 39.5923 103.123 39.473 102.935 39.3793C102.748 39.2855 102.508 39.2386 102.215 39.2386C101.815 39.2386 101.481 39.331 101.214 39.5156C100.95 39.6974 100.818 39.929 100.818 40.2102C100.818 40.4602 100.908 40.6577 101.09 40.8026C101.272 40.9474 101.556 41.0682 101.943 41.1648L102.914 41.4034C103.499 41.5455 103.935 41.7628 104.222 42.0554C104.509 42.3452 104.653 42.7187 104.653 43.1761C104.653 43.5511 104.545 43.8864 104.329 44.1818C104.116 44.4773 103.818 44.7102 103.434 44.8807C103.05 45.0511 102.604 45.1364 102.096 45.1364C101.428 45.1364 100.876 44.9915 100.438 44.7017C100.001 44.4119 99.7238 43.9886 99.6073 43.4318L100.562 43.1932C100.653 43.5455 100.825 43.8097 101.077 43.9858C101.333 44.1619 101.667 44.25 102.079 44.25C102.548 44.25 102.92 44.1506 103.195 43.9517C103.474 43.75 103.613 43.5085 103.613 43.2273C103.613 43 103.533 42.8097 103.374 42.6562C103.215 42.5 102.971 42.3835 102.641 42.3068L101.55 42.0511C100.951 41.9091 100.511 41.6889 100.229 41.3906C99.951 41.0895 99.8118 40.7131 99.8118 40.2614C99.8118 39.892 99.9155 39.5653 100.123 39.2812C100.333 38.9972 100.619 38.7741 100.979 38.6122C101.343 38.4503 101.755 38.3693 102.215 38.3693C102.863 38.3693 103.371 38.5114 103.741 38.7955C104.113 39.0795 104.377 39.4545 104.533 39.9205ZM109.013 38.4545V39.3068H105.621V38.4545H109.013ZM106.61 36.8864H107.615V43.125C107.615 43.4091 107.657 43.6222 107.739 43.7642C107.824 43.9034 107.932 43.9972 108.063 44.0455C108.196 44.0909 108.337 44.1136 108.485 44.1136C108.596 44.1136 108.686 44.108 108.757 44.0966C108.829 44.0824 108.885 44.071 108.928 44.0625L109.132 44.9659C109.064 44.9915 108.969 45.017 108.847 45.0426C108.725 45.071 108.57 45.0852 108.382 45.0852C108.098 45.0852 107.82 45.0241 107.547 44.902C107.277 44.7798 107.053 44.5938 106.874 44.3438C106.698 44.0938 106.61 43.7784 106.61 43.3977V36.8864ZM110.526 45V38.4545H111.532V45H110.526ZM111.037 37.3636C110.841 37.3636 110.672 37.2969 110.53 37.1634C110.391 37.0298 110.321 36.8693 110.321 36.6818C110.321 36.4943 110.391 36.3338 110.53 36.2003C110.672 36.0668 110.841 36 111.037 36C111.233 36 111.401 36.0668 111.54 36.2003C111.682 36.3338 111.753 36.4943 111.753 36.6818C111.753 36.8693 111.682 37.0298 111.54 37.1634C111.401 37.2969 111.233 37.3636 111.037 37.3636ZM116.033 45.1364C115.419 45.1364 114.891 44.9915 114.447 44.7017C114.004 44.4119 113.663 44.0128 113.425 43.5043C113.186 42.9957 113.067 42.4148 113.067 41.7614C113.067 41.0966 113.189 40.5099 113.433 40.0014C113.68 39.4901 114.024 39.0909 114.465 38.804C114.908 38.5142 115.425 38.3693 116.016 38.3693C116.476 38.3693 116.891 38.4545 117.26 38.625C117.629 38.7955 117.932 39.0341 118.168 39.3409C118.403 39.6477 118.55 40.0057 118.607 40.4148H117.601C117.524 40.1165 117.354 39.8523 117.09 39.6222C116.828 39.3892 116.476 39.2727 116.033 39.2727C115.641 39.2727 115.297 39.375 115.001 39.5795C114.709 39.7812 114.48 40.0668 114.315 40.4361C114.153 40.8026 114.072 41.233 114.072 41.7273C114.072 42.233 114.152 42.6733 114.311 43.0483C114.473 43.4233 114.7 43.7145 114.993 43.9219C115.288 44.1293 115.635 44.233 116.033 44.233C116.294 44.233 116.531 44.1875 116.744 44.0966C116.957 44.0057 117.138 43.875 117.286 43.7045C117.433 43.5341 117.538 43.3295 117.601 43.0909H118.607C118.55 43.4773 118.409 43.8253 118.185 44.1349C117.963 44.4418 117.669 44.6861 117.303 44.8679C116.939 45.0469 116.516 45.1364 116.033 45.1364ZM121.014 42.6136L120.997 41.3693H121.202L124.065 38.4545H125.31L122.259 41.5398H122.173L121.014 42.6136ZM120.077 45V36.2727H121.082V45H120.077ZM124.236 45L121.679 41.7614L122.395 41.0625L125.514 45H124.236ZM129.079 45.1364C128.448 45.1364 127.904 44.9972 127.447 44.7188C126.992 44.4375 126.641 44.0455 126.394 43.5426C126.15 43.0369 126.028 42.4489 126.028 41.7784C126.028 41.108 126.15 40.517 126.394 40.0057C126.641 39.4915 126.985 39.0909 127.425 38.804C127.869 38.5142 128.386 38.3693 128.977 38.3693C129.318 38.3693 129.654 38.4261 129.987 38.5398C130.319 38.6534 130.621 38.8381 130.894 39.0938C131.167 39.3466 131.384 39.6818 131.546 40.0994C131.708 40.517 131.789 41.0312 131.789 41.642V42.0682H126.744V41.1989H130.766C130.766 40.8295 130.693 40.5 130.545 40.2102C130.4 39.9205 130.193 39.6918 129.923 39.5241C129.656 39.3565 129.34 39.2727 128.977 39.2727C128.576 39.2727 128.229 39.3722 127.937 39.571C127.647 39.767 127.424 40.0227 127.268 40.3381C127.112 40.6534 127.033 40.9915 127.033 41.3523V41.9318C127.033 42.4261 127.119 42.8452 127.289 43.1889C127.462 43.5298 127.702 43.7898 128.009 43.9688C128.316 44.1449 128.673 44.233 129.079 44.233C129.343 44.233 129.582 44.196 129.795 44.1222C130.011 44.0455 130.197 43.9318 130.353 43.7812C130.509 43.6278 130.63 43.4375 130.715 43.2102L131.687 43.483C131.585 43.8125 131.413 44.1023 131.171 44.3523C130.93 44.5994 130.631 44.7926 130.276 44.9318C129.921 45.0682 129.522 45.1364 129.079 45.1364ZM136.166 38.4545V39.3068H132.773V38.4545H136.166ZM133.762 36.8864H134.768V43.125C134.768 43.4091 134.809 43.6222 134.891 43.7642C134.977 43.9034 135.085 43.9972 135.215 44.0455C135.349 44.0909 135.489 44.1136 135.637 44.1136C135.748 44.1136 135.839 44.108 135.91 44.0966C135.981 44.0824 136.038 44.071 136.08 44.0625L136.285 44.9659C136.217 44.9915 136.121 45.017 135.999 45.0426C135.877 45.071 135.722 45.0852 135.535 45.0852C135.251 45.0852 134.972 45.0241 134.7 44.902C134.43 44.7798 134.205 44.5938 134.026 44.3438C133.85 44.0938 133.762 43.7784 133.762 43.3977V36.8864Z" fill="#9C9B9B"/>
</svg>
